<?xml version="1.0" encoding="utf-8"?>
<!-- Generator: Adobe Illustrator 19.0.0, SVG Export Plug-In . SVG Version: 6.00 Build 0)  -->
<svg version="1.1" id="Layer_1" xmlns="http://www.w3.org/2000/svg" xmlns:xlink="http://www.w3.org/1999/xlink" x="0px" y="0px"
	 viewBox="892 -43.9 2395.4 878.9" style="enable-background:new 892 -43.9 2395.4 878.9;" xml:space="preserve">
<style type="text/css">
	.st0{fill:#111111;}
	.st1{fill:#CC892A;}
	.st2{fill:#555655;}
</style>
<path id="XMLID_46_" class="st0" d="M972.7,118.7c17,1.1,33.9-0.3,50.9,0c4.6,0.1,6.2,1,6.2,6c-0.2,95-0.1,189.9-0.2,284.9
	c0,34.5,0,69-0.1,103.4c0,3.6,1.2,5.7,4.1,7.7c31.5,21.5,62.9,43.2,94.3,64.7c28.1,19.3,56.4,38.1,84.3,57.7
	c29.2,20.6,58.9,40.4,88,61c3.3,2.3,4.9,1.6,7.5-0.2c31.9-22,63.9-43.9,95.8-65.9c41.4-28.5,82.7-57,124-85.5
	c15.5-10.7,31-21.5,46.7-32c3.5-2.3,4.5-4.9,4.5-8.9c-0.1-129-0.1-257.9-0.2-386.9c0-4.8,0.9-6.4,6.1-6.3
	c16.4,0.5,32.9,0.4,49.4,0.5c0.2,0,0.5,0.4,0.7,0.6c0.7,1.9,0.2,3.8,0.4,5.7c0,139.3,0,278.7,0,418c0.6,3.6-1.1,5.8-4,7.8
	c-27.1,19.1-54.5,37.7-81.8,56.4c-39.8,27.3-79.6,54.7-119.4,82c-40.1,27.5-80.1,55-120,82.8c-1.9,1.3-3.8,2.7-6.3,2.9
	c-1.9-0.2-3.4-1.4-4.9-2.4c-26.2-17.8-52.1-35.8-78.2-53.7c-26-17.9-52.1-35.8-78.1-53.8c-15.3-10.6-30.8-21-46-31.7
	c-1.1-0.8-2.4-1.6-3.5-2.3c-38.9-26.9-78.1-53.5-116.9-80.6c-1.2-0.9-2.3-1.9-3.3-3C972.7,404.7,972.7,261.7,972.7,118.7z"/>
<path id="XMLID_43_" class="st0" d="M1634.5,84.6c-89.3,0-178.6,0-267.9,0c-98.3,0-196.6,0.1-294.9,0.1c-33,0-66,0-99,0
	c0-17.7,0.1-35.3-0.1-53c0-3.4,0.7-4.1,4.1-4.1c107.5,0.1,215,0.1,322.5,0.1c111.8,0,223.6,0,335.5,0c1,2.7,0.4,5.6,0.4,8.4
	c0.1,14.6,0.1,29.2,0,43.8C1635,81.4,1635.6,83.1,1634.5,84.6z"/>
<path id="XMLID_39_" class="st0" d="M1303.7,175.7c-80.8,0-161.6,0-242.4,0.1c-4.2,0-5.2-0.9-5.1-5.1c0.2-16.5,0.1-33-0.1-49.5
	c0-2.4,1.3-2.2,2.8-2.2c4.3,0,8.7,0,13,0c34.8,0,69.6,0,104.4,0c50.1,0,100.2,0.1,150.4,0.1c49.6,0,99.2-0.1,148.8-0.1
	c24.6,0,49.2,0.1,73.7,0c2.4,0,2.3,0.8,2.3,2.5c0,17-0.1,34,0.1,51c0,4-2.3,3.1-4.5,3.1c-52.2,0-104.3,0-156.5,0
	C1361.7,175.7,1332.7,175.7,1303.7,175.7z"/>
<polygon id="XMLID_6_" class="st1" points="1091.6,217.6 1091.6,272.9 1177.2,272.9 1177.2,546.8 1233.9,591.8 1233.9,272.9 
	1276.2,272.9 1276.2,621.8 1303.4,643.9 1332.9,621.8 1332.9,272.9 1374.2,272.9 1374.2,591.8 1430.9,546.8 1430.9,272.9 
	1516.2,272.9 1516.2,217.6 "/>
<g id="XMLID_1_">
	<path id="XMLID_47_" class="st0" d="M2014.9,382.6l-22-54.4h-129.6l-22,54.4h-65.2l121.6-280h65.2l119.6,280H2014.9z M1884.1,277.4
		h88.4l-44-108.8L1884.1,277.4z"/>
	<path id="XMLID_50_" class="st0" d="M2054.9,102.6h234v53.6h-85.6v226.4h-63.2V156.2h-85.2L2054.9,102.6L2054.9,102.6z"/>
	<path id="XMLID_52_" class="st0" d="M2494.9,382.6l-44.4-80h-6h-58.4v80h-63.2v-280h121.6c36.5,0,64.8,8.5,84.8,25.4
		s30,40.9,30,71.8c0,21.6-4.5,40.1-13.4,55.4c-8.9,15.3-21.9,27-39,35l59.6,92.4H2494.9z M2386.1,249.8h58.4
		c17.6,0,31.1-4.1,40.6-12.2s14.2-20.1,14.2-35.8c0-15.5-4.7-27.1-14.2-35s-23-11.8-40.6-11.8h-58.4V249.8z"/>
	<path id="XMLID_63_" class="st0" d="M2819.3,117c22.9,12.5,41,29.8,54.2,51.8s19.8,46.5,19.8,73.4s-6.6,51.5-19.8,73.6
		c-13.2,22.1-31.3,39.5-54.2,52.2c-22.9,12.7-48.4,19-76.4,19s-53.5-6.3-76.4-19s-41-30-54.2-52s-19.8-46.6-19.8-73.8
		c0-26.9,6.6-51.4,19.8-73.4s31.2-39.3,54-51.8s48.3-18.8,76.6-18.8C2770.9,98.2,2796.4,104.5,2819.3,117z M2700.5,165.2
		c-13.3,7.9-23.9,18.6-31.6,32.2c-7.7,13.6-11.6,28.5-11.6,44.8c0,16.5,3.9,31.6,11.8,45.2s18.4,24.4,31.6,32.4
		c13.2,8,27.5,12,43,12s29.7-3.9,42.6-11.8s23.2-18.7,30.8-32.4c7.6-13.7,11.4-28.9,11.4-45.4c0-16.3-3.8-31.2-11.4-44.8
		s-17.9-24.3-30.8-32.2s-27.1-11.8-42.6-11.8C2728.3,153.4,2713.9,157.3,2700.5,165.2z"/>
	<path id="XMLID_66_" class="st0" d="M3128.5,102.6h60v280h-57.6l-135.6-180v180h-60.4v-280h57.6l136,180.8L3128.5,102.6
		L3128.5,102.6z"/>
</g>
<g>
	<path class="st2" d="M1806.1,605.1h50.8v11.5h-65V509.6h14.2V605.1z"/>
	<path class="st2" d="M1923.8,616.7c-0.8-1.6-1.4-4.4-1.9-8.4c-6.3,6.6-13.9,9.9-22.7,9.9c-7.8,0-14.3-2.2-19.3-6.7
		c-5-4.4-7.5-10.1-7.5-16.9c0-8.3,3.2-14.7,9.5-19.3c6.3-4.6,15.2-6.9,26.6-6.9h13.2v-6.3c0-4.8-1.4-8.5-4.3-11.4
		c-2.8-2.8-7-4.2-12.6-4.2c-4.9,0-8.9,1.2-12.2,3.7c-3.3,2.5-4.9,5.4-4.9,8.9H1874c0-4,1.4-7.8,4.2-11.5c2.8-3.7,6.6-6.6,11.5-8.8
		c4.8-2.2,10.1-3.2,15.9-3.2c9.2,0,16.4,2.3,21.6,6.9c5.2,4.6,7.9,10.9,8.1,18.9v36.6c0,7.3,0.9,13.1,2.8,17.4v1.2H1923.8z
		 M1901.2,606.3c4.3,0,8.3-1.1,12.1-3.3c3.8-2.2,6.6-5.1,8.3-8.6v-16.3H1911c-16.7,0-25,4.9-25,14.6c0,4.3,1.4,7.6,4.3,10
		C1893.1,605.1,1896.7,606.3,1901.2,606.3z"/>
	<path class="st2" d="M2030.8,597.9l15.3-60.8h13.6l-23.2,79.6h-11l-19.3-60.3l-18.8,60.3h-11l-23.1-79.6h13.5l15.7,59.6l18.5-59.6
		h11L2030.8,597.9z"/>
	<path class="st2" d="M2115.5,587.9c0-5.1,1.4-9.9,4.3-14.2c2.9-4.3,8.3-9.3,16.4-15.1c-4.8-5.8-7.9-10.4-9.6-14
		c-1.6-3.5-2.4-7-2.4-10.5c0-8.1,2.4-14.5,7.2-19.1c4.8-4.6,11.3-6.9,19.6-6.9c7.4,0,13.4,2.1,18.2,6.4c4.8,4.3,7.2,9.7,7.2,16.2
		c0,4.3-1.1,8.3-3.3,12c-2.2,3.7-6,7.5-11.4,11.5l-7.9,5.8l23.8,28.5c3.3-6.4,5-13.5,5-21.3h12.3c0,12.5-3,22.9-9,31.1l15.3,18.3
		H2185l-7.1-8.5c-3.6,3.2-7.9,5.7-12.8,7.4c-4.9,1.7-9.8,2.5-14.9,2.5c-10.4,0-18.8-2.8-25.2-8.3
		C2118.7,604.3,2115.5,597,2115.5,587.9z M2150.2,607c7.2,0,13.8-2.7,19.8-8.2l-26.1-31.3l-2.4,1.8c-8.2,6-12.3,12.2-12.3,18.6
		c0,5.8,1.9,10.4,5.6,13.9C2138.5,605.3,2143.7,607,2150.2,607z M2137.9,533.7c0,4.7,2.9,10.6,8.7,17.7l8.7-6.1
		c3.3-2.4,5.6-4.6,6.8-6.7c1.2-2.1,1.8-4.7,1.8-7.8c0-3.3-1.2-6-3.7-8.2c-2.5-2.2-5.5-3.3-9.3-3.3c-4,0-7.2,1.4-9.6,4.1
		C2139.1,526.1,2137.9,529.5,2137.9,533.7z"/>
	<path class="st2" d="M2318.2,588.7h-44.9l-10.1,28h-14.6l40.9-107.1h12.4l41,107.1h-14.5L2318.2,588.7z M2277.5,577.1h36.4
		l-18.2-50.1L2277.5,577.1z"/>
	<path class="st2" d="M2376.1,517.8v19.3h14.9v10.5h-14.9V597c0,3.2,0.7,5.6,2,7.2c1.3,1.6,3.6,2.4,6.8,2.4c1.6,0,3.7-0.3,6.5-0.9
		v11c-3.6,1-7.1,1.5-10.4,1.5c-6.1,0-10.7-1.8-13.8-5.5c-3.1-3.7-4.6-8.9-4.6-15.7v-49.4H2348v-10.5h14.5v-19.3H2376.1z"/>
	<path class="st2" d="M2429.1,517.8v19.3h14.9v10.5h-14.9V597c0,3.2,0.7,5.6,2,7.2c1.3,1.6,3.6,2.4,6.8,2.4c1.6,0,3.7-0.3,6.5-0.9
		v11c-3.6,1-7.1,1.5-10.4,1.5c-6.1,0-10.7-1.8-13.8-5.5c-3.1-3.7-4.6-8.9-4.6-15.7v-49.4H2401v-10.5h14.5v-19.3H2429.1z"/>
	<path class="st2" d="M2458.6,576.1c0-7.8,1.5-14.8,4.6-21c3.1-6.2,7.3-11,12.8-14.4c5.5-3.4,11.7-5.1,18.7-5.1
		c10.8,0,19.6,3.8,26.3,11.3s10,17.5,10,29.9v1c0,7.7-1.5,14.7-4.5,20.9c-3,6.2-7.2,10.9-12.7,14.4c-5.5,3.4-11.9,5.1-19,5.1
		c-10.8,0-19.5-3.8-26.2-11.3s-10-17.4-10-29.8V576.1z M2472.2,577.8c0,8.8,2,15.9,6.1,21.3c4.1,5.3,9.6,8,16.4,8
		c6.9,0,12.4-2.7,16.5-8.1c4.1-5.4,6.1-13,6.1-22.8c0-8.7-2.1-15.8-6.2-21.2c-4.1-5.4-9.7-8.1-16.5-8.1c-6.7,0-12.1,2.7-16.3,8
		C2474.3,560.2,2472.2,567.8,2472.2,577.8z"/>
	<path class="st2" d="M2590.3,549.3c-2.1-0.3-4.3-0.5-6.7-0.5c-8.9,0-15,3.8-18.2,11.4v56.5h-13.6v-79.6h13.2l0.2,9.2
		c4.5-7.1,10.8-10.7,19-10.7c2.6,0,4.7,0.3,6,1V549.3z"/>
	<path class="st2" d="M2619.5,537.1l0.4,10c6.1-7.7,14-11.5,23.8-11.5c16.8,0,25.3,9.5,25.5,28.5v52.6h-13.6V564
		c0-5.7-1.4-10-3.9-12.7c-2.6-2.7-6.6-4.1-12-4.1c-4.4,0-8.3,1.2-11.6,3.5c-3.3,2.4-5.9,5.4-7.8,9.3v56.7h-13.6v-79.6H2619.5z"/>
	<path class="st2" d="M2726.5,618.2c-10.8,0-19.6-3.5-26.3-10.6c-6.8-7.1-10.2-16.6-10.2-28.4v-2.5c0-7.9,1.5-14.9,4.5-21.1
		c3-6.2,7.2-11.1,12.7-14.6c5.4-3.5,11.3-5.3,17.6-5.3c10.3,0,18.4,3.4,24.1,10.2c5.7,6.8,8.6,16.6,8.6,29.3v5.7h-53.9
		c0.2,7.8,2.5,14.2,6.9,19c4.4,4.8,10,7.2,16.7,7.2c4.8,0,8.9-1,12.2-2.9c3.3-2,6.3-4.6,8.8-7.8l8.3,6.5
		C2749.9,613,2739.9,618.2,2726.5,618.2z M2724.8,546.8c-5.5,0-10.1,2-13.8,6c-3.7,4-6,9.6-6.9,16.8h39.9v-1
		c-0.4-6.9-2.3-12.3-5.6-16.1S2730.5,546.8,2724.8,546.8z"/>
	<path class="st2" d="M2802.2,596.7l18.5-59.7h14.6l-32,91.9c-5,13.2-12.8,19.9-23.6,19.9l-2.6-0.2l-5.1-1v-11l3.7,0.3
		c4.6,0,8.2-0.9,10.8-2.8c2.6-1.9,4.7-5.3,6.4-10.2l3-8.1l-28.4-78.7h14.9L2802.2,596.7z"/>
	<path class="st2" d="M2953.4,569.4h-44.9v47.3h-14.1V509.6h66.4v11.5h-52.2v36.7h44.9V569.4z"/>
	<path class="st2" d="M2979.4,516c0-2.2,0.7-4.1,2-5.6c1.3-1.5,3.3-2.3,6-2.3c2.6,0,4.7,0.8,6,2.3c1.4,1.5,2.1,3.4,2.1,5.6
		c0,2.2-0.7,4-2.1,5.5c-1.4,1.5-3.4,2.2-6,2.2c-2.6,0-4.6-0.7-6-2.2C2980,520,2979.4,518.2,2979.4,516z M2994.1,616.7h-13.6v-79.6
		h13.6V616.7z"/>
	<path class="st2" d="M3058.1,549.3c-2.1-0.3-4.3-0.5-6.7-0.5c-8.9,0-15,3.8-18.2,11.4v56.5h-13.6v-79.6h13.2l0.2,9.2
		c4.5-7.1,10.8-10.7,19-10.7c2.6,0,4.7,0.3,6,1V549.3z"/>
	<path class="st2" d="M3087.2,537.1l0.4,8.8c5.8-6.9,13.7-10.3,23.6-10.3c11.1,0,18.7,4.3,22.7,12.8c2.6-3.8,6.1-6.9,10.3-9.3
		c4.2-2.4,9.3-3.5,15-3.5c17.5,0,26.3,9.2,26.6,27.7v53.3h-13.6v-52.5c0-5.7-1.3-9.9-3.9-12.8c-2.6-2.8-7-4.2-13.1-4.2
		c-5.1,0-9.2,1.5-12.6,4.5c-3.3,3-5.3,7.1-5.8,12.2v52.8h-13.7v-52.2c0-11.6-5.7-17.4-17-17.4c-8.9,0-15,3.8-18.3,11.4v58.1h-13.6
		v-79.6H3087.2z"/>
</g>
</svg>
